<svg xmlns="http://www.w3.org/2000/svg" xmlns:xlink="http://www.w3.org/1999/xlink" width="26" height="40" viewBox="0 0 810 809.999993" preserveAspectRatio="xMidYMid meet" version="1.0">
    <g>
        <path fill="#000000" d="M 404.816406 492.714844 C 332.28125 492.714844 273.289062 433.679688 273.289062 361.089844 L 273.289062 185.589844 C 273.289062 113 332.28125 53.964844 404.816406 53.964844 C 477.355469 53.964844 536.347656 113 536.347656 185.589844 L 536.347656 361.089844 C 536.347656 433.679688 477.355469 492.714844 404.816406 492.714844 Z M 404.816406 97.839844 C 356.460938 97.839844 317.132812 137.195312 317.132812 185.589844 L 317.132812 361.089844 C 317.132812 409.484375 356.460938 448.839844 404.816406 448.839844 C 453.175781 448.839844 492.503906 409.484375 492.503906 361.089844 L 492.503906 185.589844 C 492.503906 137.195312 453.175781 97.839844 404.816406 97.839844 Z M 404.816406 97.839844 " fill-opacity="1" fill-rule="nonzero"/>
    </g>
    <g>
        <path fill="#000000" d="M 580.191406 317.214844 L 580.191406 361.089844 C 580.191406 457.855469 501.515625 536.589844 404.816406 536.589844 C 308.121094 536.589844 229.445312 457.855469 229.445312 361.089844 L 229.445312 317.214844 L 185.601562 317.214844 L 185.601562 361.089844 C 185.601562 474.660156 272.28125 568.3125 382.898438 579.34375 L 382.898438 755.964844 L 426.738281 755.964844 L 426.738281 579.34375 C 537.355469 568.3125 624.035156 474.636719 624.035156 361.089844 L 624.035156 317.214844 Z M 580.191406 317.214844 " fill-opacity="1" fill-rule="nonzero"/>
    </g>
</svg>